<svg xmlns="http://www.w3.org/2000/svg" width="800" height="800" class="icon" viewBox="0 0 1024 1024"><path fill="#EBA824" d="M222.75 198.549h487.622v799.556H222.75z"/><path fill="#EACC53" d="M222.75 903.065h487.622v66.465H222.75z"/><path fill="#EACC53" d="M312.64 432.8h41.135v490.797H312.64zm134.553 0h41.135v490.797h-41.135zm131.378 0h41.135v490.797H578.57z"/><path fill="#6E4921" d="M828.768 345.731H710.443v38.03h72.039c26.106 0 47.485 21.38 47.485 47.486v335.642c0 26.106-21.379 47.485-47.485 47.485h-72.04v38.03h118.326c26.106 0 47.485-21.379 47.485-47.485V393.217c0-26.107-21.38-47.486-47.485-47.486z"/><path fill="#F5ECDA" d="M185.848 101.532s-58.562 98.146 41.982 129.826c26.106 5.574 79.942-2.4 111.622-15.029 15.029-3.175 52.212-14.253 64.913 25.33 10.301 16.652 52.212 64.913 85.515 7.903 10.302-24.554 18.98-54.612 62.514-49.884 26.106 3.95 103.367 32.033 158.049 13.053.211 47.979 0 50.801 0 50.801s71.968-10.02 49.39-103.437c-7.126-24.554-38.03-69.64-89.467-68.864-20.603-7.127-37.184-22.155-49.884-30.904C606.23 50.8 523.89 4.092 458.2 52.424c-20.603-6.773-37.184-19.403-80.718-25.33-36.055-3.104-124.957-5.292-191.634 74.438z"/><path fill="#FFF" d="M246.81 107.812s.07-.212.282-.565c.212-.352.423-.917.847-1.552a55.736 55.736 0 0 1 3.528-5.362c1.623-2.258 3.669-4.798 6.28-7.62.634-.706 1.34-1.412 2.045-2.117l2.188-2.188c1.552-1.481 3.175-2.892 4.939-4.445.846-.776 1.834-1.481 2.752-2.187.987-.706 1.905-1.482 2.963-2.258.988-.776 2.046-1.41 3.104-2.187 1.059-.706 2.188-1.482 3.317-2.187 2.257-1.411 4.586-2.823 7.126-4.093 2.47-1.34 5.08-2.54 7.69-3.74 1.341-.634 2.682-1.128 4.093-1.693 1.411-.493 2.752-1.129 4.163-1.622 2.893-.918 5.786-1.976 8.749-2.682 1.482-.423 3.034-.776 4.516-1.129 1.552-.352 3.034-.635 4.586-.917 3.104-.635 6.209-.988 9.384-1.41 3.175-.354 6.35-.495 9.455-.636h8.255l1.2.07c6.28.353 12.418 1.2 18.203 2.54 1.482.353 2.893.706 4.304 1.06.706.21 1.411.352 2.117.564.706.211 1.411.423 2.046.705 1.34.423 2.681.917 4.022 1.34.635.212 1.34.424 1.976.706.635.212 1.27.565 1.905.776 1.27.565 2.47 1.059 3.669 1.623 1.2.565 2.399.988 3.527 1.623 2.258 1.27 4.375 2.399 6.421 3.598.494.283.988.565 1.482.918.494.352.988.635 1.411.988a88.23 88.23 0 0 1 2.681 1.905c.847.635 1.694 1.27 2.54 1.834.424.282.776.565 1.2.917.353.353.776.635 1.129.988 1.41 1.27 2.822 2.4 3.95 3.599.565.564 1.2 1.128 1.694 1.622.565.494.988 1.13 1.482 1.623.917 1.059 1.764 1.976 2.399 2.822a54.91 54.91 0 0 1 1.693 2.117c.424.565.776 1.059.988 1.34.212.283.353.495.353.495l-.988 1.834s-2.54-1.2-6.985-3.316c-1.129-.564-2.399-1.058-3.74-1.623-1.34-.564-2.892-1.129-4.445-1.764-1.552-.705-3.316-1.2-5.15-1.834-.918-.282-1.835-.635-2.752-.988-.494-.141-.988-.353-1.411-.494l-1.482-.423c-2.046-.565-4.092-1.2-6.28-1.764-2.187-.565-4.515-.988-6.844-1.553-4.727-.917-9.737-1.763-14.958-2.257a150.59 150.59 0 0 0-16.087-.847h-1.058l-1.059.07-2.046.071c-1.411.07-2.752.07-4.163.141-1.41.141-2.751.212-4.163.353-1.41.141-2.751.212-4.163.423-2.751.353-5.574.635-8.325 1.13-1.34.21-2.752.423-4.093.634-1.34.282-2.68.565-4.092.847-2.681.494-5.362 1.2-7.973 1.834-1.34.353-2.61.706-3.88 1.059s-2.54.705-3.81 1.129a179.12 179.12 0 0 0-7.339 2.399c-1.2.423-2.399.776-3.528 1.2-1.128.422-2.328.846-3.457 1.27-1.129.423-2.258.846-3.316 1.34-1.058.423-2.187.846-3.175 1.34-2.046.918-4.092 1.764-5.998 2.682-.917.423-1.905.917-2.822 1.34-.917.423-1.764.917-2.681 1.34-1.764.847-3.316 1.694-4.868 2.47a183.748 183.748 0 0 0-7.762 4.375 118.259 118.259 0 0 0-4.798 3.034c-.564.353-.987.635-1.27.846a3.227 3.227 0 0 1-.423.283l-1.27-1.764z"/></svg>